{"title":"Snapper Hero Snapchat Session 2 (03/12/2015) (Unedited)","uid":11750677,"size":33792835,"categoryP":"video","categoryS":"handheld","magnet":"?xt=urn:btih:10f9e0d3a2182ee2ce578a16f70f203c892fcaee&amp;dn=Snapper+Hero+Snapchat+Session+2+%2803%2F12%2F2015%29+%28Unedited%29&amp;tr=udp%3A%2F%2Ftracker.openbittorrent.com%3A80&amp;tr=udp%3A%2F%2Fopen.demonii.com%3A1337&amp;tr=udp%3A%2F%2Ftracker.coppersurfer.tk%3A6969&amp;tr=udp%3A%2F%2Fexodus.desync.com%3A6969","seeders":0,"leechers":1,"uploader":"geiszla","files":30,"time":1426197192,"description":"Episode 2 from Snapper Hero (03/12/2015)\n\nTech Specs:\nGeneral\nComplete name                  : C:[...]snapperhero-12-03-2015-23_12_32.mov\nFormat                         : MPEG-4\nFormat profile                 : Base Media / Version 2\nCodec ID                       : mp42\nFile size                      : 1.75 MiB\nDuration                       : 7s 967ms\nOverall bit rate               : 1 845 Kbps\nEncoded date                   : UTC 2015-03-12 20:07:43\nTagged date                    : UTC 2015-03-12 20:07:44\n\nVideo\nID                             : 2\nFormat                         : AVC\nFormat/Info                    : Advanced Video Codec\nFormat profile                 : &lt;a class=&quot;__cf_email__&quot; href=&quot;/cdn-cgi/l/email-protection&quot; data-cfemail=&quot;4800212f2008047b6678&quot;&gt;[email&amp;#160;protected]&lt;/a&gt;&lt;script cf-hash='f9e31' type=&quot;text/javascript&quot;&gt;\n/* &lt;![CDATA[ */!function(){try{var t=&quot;currentScript&quot;in document?document.currentScript:function(){for(var t=document.getElementsByTagName(&quot;script&quot;),e=t.length;e--;)if(t[e].getAttribute(&quot;cf-hash&quot;))return t[e]}();if(t&amp;&amp;t.previousSibling){var e,r,n,i,c=t.previousSibling,a=c.getAttribute(&quot;data-cfemail&quot;);if(a){for(e=&quot;&quot;,r=parseInt(a.substr(0,2),16),n=2;a.length-n;n+=2)i=parseInt(a.substr(n,2),16)^r,e+=String.fromCharCode(i);e=document.createTextNode(e),c.parentNode.replaceChild(e,c)}}}catch(u){}}();/* ]]&gt; */&lt;/script&gt;\nFormat settings, CABAC         : Yes\nFormat settings, ReFrames      : 2 frames\nCodec ID                       : avc1\nCodec ID/Info                  : Advanced Video Coding\nDuration                       : 7s 967ms\nBit rate                       : 1 586 Kbps\nWidth                          : 376 pixels\nHeight                         : 668 pixels\nDisplay aspect ratio           : 0.563\nFrame rate mode                : Constant\nFrame rate                     : 30.000 fps\nColor space                    : YUV\nChroma subsampling             : 4:2:0\nBit depth                      : 8 bits\nScan type                      : Progressive\nBits/(Pixel*Frame)             : 0.211\nStream size                    : 1.51 MiB (86%)\nTitle                          : Core Media Video\nEncoded date                   : UTC 2015-03-12 20:07:43\nTagged date                    : UTC 2015-03-12 20:07:44\nColor primaries                : BT.709\nTransfer characteristics       : BT.709\nMatrix coefficients            : BT.601\nColor range                    : Limited\n\nAudio\nID                             : 1\nFormat                         : AAC\nFormat/Info                    : Advanced Audio Codec\nFormat profile                 : LC\nCodec ID                       : 40\nDuration                       : 7s 963ms\nSource duration                : 8s 34ms\nBit rate mode                  : Constant\nBit rate                       : 256 Kbps\nChannel(s)                     : 2 channels\nChannel positions              : Front: L R\nSampling rate                  : 44.1 KHz\nCompression mode               : Lossy\nStream size                    : 245 KiB (14%)\nSource stream size             : 246 KiB (14%)\nTitle                          : Core Media Audio\nEncoded date                   : UTC 2015-03-12 20:07:43\nTagged date                    : UTC 2015-03-12 20:07:44\n\nNote: I just uploaded this torrent for those who are not able to watch it on snapchat. Please do it, if you can!","torrent":{"xt":"urn:btih:10f9e0d3a2182ee2ce578a16f70f203c892fcaee","amp;dn":"Snapper+Hero+Snapchat+Session+2+%2803%2F12%2F2015%29+%28Unedited%29","amp;tr":["udp%3A%2F%2Ftracker.openbittorrent.com%3A80","udp%3A%2F%2Fopen.demonii.com%3A1337","udp%3A%2F%2Ftracker.coppersurfer.tk%3A6969","udp%3A%2F%2Fexodus.desync.com%3A6969"],"infoHash":"10f9e0d3a2182ee2ce578a16f70f203c892fcaee","infoHashBuffer":{"type":"Buffer","data":[16,249,224,211,162,24,46,226,206,87,138,22,247,15,32,60,137,47,202,238]},"announce":[],"urlList":[]}}